<?xml version="1.0" encoding="utf-8"?><!DOCTYPE svg PUBLIC "-//W3C//DTD SVG 1.1//EN" "http://www.w3.org/Graphics/SVG/1.1/DTD/svg11.dtd"><svg version="1.1" xmlns="http://www.w3.org/2000/svg" xmlns:xlink="http://www.w3.org/1999/xlink" x="0px" y="0px" width="256px" height="256px" viewBox="0 0 256 256" enable-background="new 0 0 256 256" xml:space="preserve"><path fill="#FFFFFF" d="M128,18.763C66.121,18.763,16,68.883,16,130.764c0,49.561,32.06,91.42,76.58,106.26c5.6,0.98,7.7-2.381,7.7-5.32c0-2.66-0.141-11.48-0.141-20.859c-28.14,5.18-35.42-6.861-37.66-13.16c-1.26-3.221-6.72-13.16-11.479-15.82c-3.921-2.1-9.521-7.279-0.14-7.42c8.819-0.141,15.119,8.121,17.219,11.48c10.08,16.939,26.181,12.18,32.621,9.24c0.979-7.281,3.92-12.18,7.139-14.98c-24.92-2.801-50.959-12.461-50.959-55.3c0-12.181,4.34-22.26,11.48-30.1c-1.121-2.8-5.041-14.28,1.119-29.68c0,0,9.381-2.94,30.801,11.479c8.959-2.52,18.479-3.78,28-3.78c9.52,0,19.04,1.26,27.999,3.78c21.422-14.56,30.801-11.479,30.801-11.479c6.16,15.4,2.24,26.88,1.121,29.68c7.139,7.84,11.479,17.78,11.479,30.1c0,42.98-26.18,52.5-51.1,55.3c4.061,3.5,7.561,10.219,7.561,20.721c0,14.979-0.141,27.02-0.141,30.799c0,2.939,2.1,6.439,7.701,5.32c44.238-14.84,76.299-56.84,76.299-106.26C240,68.883,189.881,18.763,128,18.763z"/></svg>