<?xml version="1.0" encoding="utf-8"?><!DOCTYPE svg PUBLIC "-//W3C//DTD SVG 1.1//EN" "http://www.w3.org/Graphics/SVG/1.1/DTD/svg11.dtd"><svg version="1.1" xmlns="http://www.w3.org/2000/svg" xmlns:xlink="http://www.w3.org/1999/xlink" x="0px" y="0px" width="256px" height="256px" viewBox="0 0 256 256" enable-background="new 0 0 256 256" xml:space="preserve"><path fill="#FFFFFF" d="M228.136,94.12c0-16.027-5.646-28.957-14.933-39.156c1.456-3.642,6.555-18.577-1.459-38.609c0,0-12.2-4.007-40.066,14.932c-11.655-3.277-24.039-4.917-36.423-4.917c-12.385,0-24.77,1.639-36.424,4.917C70.966,12.529,58.763,16.354,58.763,16.354c-8.014,20.033-2.914,34.967-1.456,38.609c-9.288,10.199-14.935,23.31-14.935,39.156c0,55.729,33.874,68.296,66.291,71.939c-4.187,3.643-8.014,10.016-9.286,19.487c-8.378,3.823-29.323,10.016-42.436-12.021c-2.731-4.37-10.927-15.117-22.399-14.935c-12.203,0.183-4.919,6.921,0.182,9.652c6.191,3.461,13.295,16.391,14.934,20.58c2.914,8.194,12.385,23.857,48.99,17.12c0,12.2,0.184,23.675,0.184,27.135c0,2.876-1.55,6.064-5.421,6.921h83.039c-3.657-0.93-5.136-4.116-5.136-6.921c0-4.916,0.183-20.58,0.183-40.065c0-13.661-4.553-22.401-9.835-26.954C194.079,162.416,228.136,150.032,228.136,94.12z"/></svg>