<?xml version="1.0" encoding="utf-8"?><!DOCTYPE svg PUBLIC "-//W3C//DTD SVG 1.1//EN" "http://www.w3.org/Graphics/SVG/1.1/DTD/svg11.dtd"><svg version="1.1" xmlns="http://www.w3.org/2000/svg" xmlns:xlink="http://www.w3.org/1999/xlink" x="0px" y="0px" width="256px" height="256px" viewBox="0 0 256 256" enable-background="new 0 0 256 256" xml:space="preserve"><path fill="#FFFFFF" d="M128.01,15.999c-30.418,0-34.234,0.133-46.182,0.677c-11.923,0.546-20.063,2.434-27.184,5.203c-7.367,2.861-13.615,6.687-19.84,12.916c-6.23,6.225-10.057,12.473-12.927,19.838c-2.776,7.123-4.667,15.265-5.204,27.183C16.141,93.763,16,97.582,16,128c0,30.417,0.135,34.223,0.677,46.17c0.548,11.922,2.436,20.062,5.203,27.185c2.863,7.364,6.69,13.612,12.918,19.838c6.223,6.23,12.471,10.066,19.833,12.93c7.125,2.768,15.268,4.656,27.188,5.201c11.947,0.545,15.762,0.678,46.178,0.678c30.42,0,34.227-0.133,46.174-0.678c11.924-0.545,20.072-2.434,27.195-5.201c7.363-2.863,13.604-6.699,19.828-12.93c6.23-6.226,10.057-12.474,12.926-19.838c2.754-7.123,4.643-15.263,5.203-27.183C239.861,162.226,240,158.417,240,128c0-30.418-0.139-34.234-0.678-46.182c-0.561-11.923-2.449-20.063-5.203-27.184c-2.869-7.367-6.695-13.615-12.926-19.84c-6.23-6.231-12.459-10.058-19.834-12.916c-7.141-2.77-15.285-4.657-27.207-5.203c-11.947-0.544-15.75-0.677-46.178-0.677H128.01z M117.963,36.183c2.982-0.005,6.309,0,10.047,0c29.906,0,33.449,0.106,45.26,0.644c10.918,0.5,16.846,2.324,20.795,3.857c5.225,2.03,8.949,4.457,12.869,8.377s6.346,7.653,8.381,12.88c1.533,3.943,3.359,9.87,3.857,20.79c0.537,11.808,0.654,15.354,0.654,45.244c0,29.89-0.117,33.435-0.654,45.243c-0.498,10.919-2.324,16.848-3.857,20.79c-2.029,5.228-4.461,8.948-8.381,12.865c-3.92,3.919-7.643,6.349-12.869,8.376c-3.945,1.541-9.877,3.361-20.795,3.86c-11.809,0.538-15.354,0.654-45.26,0.654s-33.451-0.116-45.258-0.654c-10.919-0.503-16.846-2.329-20.797-3.86c-5.227-2.032-8.96-4.457-12.881-8.379c-3.919-3.918-6.346-7.645-8.381-12.871c-1.533-3.942-3.359-9.871-3.856-20.791c-0.536-11.809-0.645-15.354-0.645-45.262s0.108-33.438,0.645-45.244c0.499-10.919,2.323-16.846,3.856-20.795c2.031-5.227,4.462-8.96,8.381-12.88c3.921-3.92,7.654-6.347,12.881-8.381c3.949-1.541,9.878-3.36,20.797-3.861c10.333-0.468,14.336-0.607,35.211-0.63V36.183z M187.795,54.779c-7.422,0-13.439,6.013-13.439,13.436c0,7.42,6.018,13.44,13.439,13.44s13.441-6.021,13.441-13.44s-6.02-13.439-13.441-13.439V54.779z M128.01,70.483c-31.764,0-57.517,25.753-57.517,57.517c0,31.765,25.753,57.504,57.517,57.504c31.766,0,57.51-25.739,57.51-57.504c0-31.764-25.748-57.517-57.512-57.517H128.01z M128.01,90.666c20.617,0,37.334,16.714,37.334,37.334c0,20.616-16.717,37.333-37.334,37.333c-20.619,0-37.334-16.717-37.334-37.333C90.676,107.38,107.391,90.666,128.01,90.666z"/></svg>