<?xml version="1.0" encoding="utf-8"?><!DOCTYPE svg PUBLIC "-//W3C//DTD SVG 1.1//EN" "http://www.w3.org/Graphics/SVG/1.1/DTD/svg11.dtd"><svg version="1.1" xmlns="http://www.w3.org/2000/svg" xmlns:xlink="http://www.w3.org/1999/xlink" x="0px" y="0px" width="256px" height="256px" viewBox="0 0 256 256" enable-background="new 0 0 256 256" xml:space="preserve"><g><path fill="#FFFFFF" d="M236.79,106.86c1.777,0,3.21-1.436,3.21-3.211V92.081c0-1.773-1.433-3.216-3.21-3.216h-46.206h-0.005c-0.866,0-1.646,0.348-2.225,0.908c-0.015,0.014-0.029,0.021-0.037,0.034c-0.022,0.02-0.037,0.037-0.049,0.056c-0.553,0.577-0.895,1.355-0.895,2.214v0.003v71.842v0.003c0,0.863,0.344,1.644,0.898,2.216c0.012,0.019,0.027,0.037,0.045,0.049c0.01,0.019,0.031,0.033,0.049,0.048c0.573,0.552,1.353,0.896,2.213,0.896h0.005h46.206c1.777,0,3.21-1.441,3.21-3.212v-11.57c0-1.771-1.433-3.21-3.21-3.21h-31.424v-12.146h31.424c1.777,0,3.21-1.438,3.21-3.213v-11.567c0-1.773-1.433-3.214-3.21-3.214h-31.424V106.86H236.79z"/><path fill="#FFFFFF" d="M161.351,88.868c-1.775,0-3.213,1.438-3.213,3.206v42.69l-32.926-44.47c-0.078-0.114-0.162-0.221-0.252-0.326l-0.02-0.02c-0.064-0.072-0.129-0.136-0.195-0.199c-0.016-0.019-0.038-0.034-0.059-0.054c-0.053-0.051-0.11-0.097-0.17-0.14c-0.027-0.026-0.053-0.046-0.082-0.069c-0.057-0.038-0.111-0.076-0.17-0.113c-0.031-0.021-0.063-0.04-0.097-0.055c-0.056-0.037-0.112-0.072-0.172-0.099c-0.032-0.017-0.065-0.034-0.099-0.047c-0.061-0.029-0.121-0.056-0.182-0.078c-0.04-0.013-0.072-0.026-0.107-0.039c-0.063-0.023-0.125-0.044-0.191-0.061c-0.036-0.013-0.074-0.019-0.111-0.032c-0.064-0.012-0.123-0.028-0.184-0.04c-0.044-0.008-0.091-0.013-0.136-0.016c-0.059-0.013-0.114-0.018-0.171-0.024c-0.055-0.004-0.109-0.004-0.164-0.009c-0.043,0-0.074-0.006-0.113-0.006h-11.565c-1.775,0-3.215,1.438-3.215,3.206v71.855c0,1.769,1.439,3.204,3.215,3.204h11.565c1.775,0,3.215-1.436,3.215-3.204V121.25l32.967,44.526c0.228,0.322,0.508,0.585,0.814,0.792c0.01,0.006,0.023,0.018,0.033,0.026c0.066,0.04,0.132,0.083,0.198,0.12c0.031,0.021,0.06,0.032,0.092,0.048c0.048,0.028,0.103,0.055,0.151,0.075c0.053,0.022,0.104,0.047,0.158,0.068c0.031,0.01,0.064,0.025,0.094,0.033c0.08,0.029,0.147,0.049,0.221,0.073c0.015,0,0.031,0.007,0.047,0.011c0.262,0.068,0.539,0.109,0.822,0.109h11.565c1.778,0,3.212-1.436,3.212-3.204V92.073c0-1.768-1.434-3.206-3.212-3.206H161.351z"/><path fill="#FFFFFF" d="M30.78,88.865H19.212c-1.774,0-3.212,1.44-3.212,3.212v71.84v0.008c0,0.863,0.343,1.644,0.899,2.216c0.011,0.019,0.022,0.036,0.043,0.049c0.014,0.019,0.032,0.027,0.049,0.048c0.576,0.553,1.355,0.896,2.218,0.896h0.003h46.206c1.774,0,3.207-1.441,3.207-3.217v-11.565c0-1.774-1.433-3.21-3.207-3.21H33.991V92.078C33.991,90.306,32.552,88.865,30.78,88.865z"/><path fill="#FFFFFF" d="M81.736,88.868c-1.775,0-3.217,1.438-3.217,3.206v71.855c0,1.769,1.441,3.204,3.217,3.204h11.566c1.772,0,3.212-1.436,3.212-3.204V92.073c0-1.768-1.439-3.206-3.212-3.206H81.736z"/></g></svg>