<?xml version="1.0" encoding="utf-8"?><!DOCTYPE svg PUBLIC "-//W3C//DTD SVG 1.1//EN" "http://www.w3.org/Graphics/SVG/1.1/DTD/svg11.dtd"><svg version="1.1" xmlns="http://www.w3.org/2000/svg" xmlns:xlink="http://www.w3.org/1999/xlink" x="0px" y="0px" width="256px" height="256px" viewBox="0 0 256 256" enable-background="new 0 0 256 256" xml:space="preserve"><path fill="#FFFFFF" d="M240,112.174c0-50.117-50.24-90.889-112-90.889c-61.752,0-112,40.772-112,90.889c0,44.93,39.845,82.556,93.666,89.672c3.65,0.786,8.615,2.403,9.87,5.521c1.13,2.832,0.737,7.268,0.361,10.129c0,0-1.315,7.901-1.599,9.585c-0.487,2.832-2.251,11.074,9.701,6.038c11.954-5.038,64.5-37.98,88-65.026h-0.006C232.225,150.295,240,132.23,240,112.174z M88.483,138.929c0,1.205-0.973,2.185-2.178,2.185H54.923h-0.002c-0.585,0-1.115-0.233-1.506-0.609c-0.012-0.014-0.024-0.02-0.033-0.032c-0.014-0.009-0.022-0.021-0.029-0.033c-0.378-0.389-0.611-0.919-0.611-1.505v-0.005V90.135c0-1.204,0.976-2.182,2.181-2.182h7.857c1.203,0,2.181,0.978,2.181,2.182v38.757h21.345c1.205,0,2.178,0.976,2.178,2.181V138.929z M107.426,138.936c0,1.201-0.978,2.176-2.182,2.176h-7.855c-1.206,0-2.185-0.975-2.185-2.176V90.132c0-1.201,0.979-2.177,2.185-2.177h7.855c1.204,0,2.182,0.977,2.182,2.177V138.936z M161.498,138.936c0,1.201-0.974,2.176-2.182,2.176h-7.855c-0.191,0-0.38-0.027-0.558-0.074c-0.011-0.002-0.022-0.007-0.032-0.007c-0.05-0.017-0.096-0.03-0.15-0.05c-0.02-0.006-0.042-0.016-0.063-0.022c-0.037-0.015-0.071-0.031-0.107-0.047c-0.033-0.014-0.07-0.031-0.103-0.051c-0.021-0.011-0.041-0.019-0.063-0.032c-0.045-0.025-0.09-0.055-0.135-0.082c-0.007-0.006-0.016-0.014-0.022-0.018c-0.208-0.141-0.398-0.319-0.553-0.538l-22.391-30.242v28.987c0,1.201-0.978,2.176-2.184,2.176h-7.854c-1.206,0-2.184-0.975-2.184-2.176V90.132c0-1.201,0.978-2.177,2.184-2.177h7.854c0.027,0,0.048,0.004,0.078,0.004c0.037,0.003,0.074,0.003,0.111,0.006c0.038,0.005,0.076,0.008,0.116,0.017c0.031,0.002,0.063,0.005,0.092,0.011c0.042,0.008,0.081,0.019,0.125,0.027c0.026,0.009,0.051,0.013,0.076,0.022c0.045,0.011,0.087,0.025,0.13,0.041c0.024,0.009,0.046,0.018,0.073,0.026c0.042,0.015,0.083,0.033,0.124,0.053c0.022,0.009,0.045,0.021,0.067,0.032c0.04,0.018,0.079,0.042,0.117,0.067c0.023,0.01,0.044,0.022,0.065,0.037c0.04,0.025,0.077,0.051,0.116,0.077c0.02,0.016,0.037,0.029,0.055,0.047c0.041,0.029,0.08,0.061,0.116,0.095c0.014,0.014,0.028,0.023,0.04,0.037c0.045,0.043,0.088,0.086,0.133,0.135l0.013,0.013c0.061,0.071,0.119,0.144,0.171,0.221l22.363,30.204V90.132c0-1.201,0.977-2.177,2.182-2.177h7.855c1.208,0,2.182,0.977,2.182,2.177V138.936z M204.879,97.994c0,1.206-0.973,2.181-2.18,2.181h-21.343v8.247h21.343c1.207,0,2.18,0.979,2.18,2.183v7.856c0,1.205-0.973,2.182-2.18,2.182h-21.343v8.249h21.343c1.207,0,2.18,0.979,2.18,2.181v7.858c0,1.202-0.973,2.182-2.18,2.182h-31.383h-0.004c-0.584,0-1.113-0.234-1.503-0.609c-0.012-0.01-0.026-0.02-0.033-0.032c-0.012-0.008-0.022-0.021-0.03-0.033c-0.377-0.389-0.61-0.919-0.61-1.505v-0.002V90.138v-0.002c0-0.583,0.232-1.112,0.608-1.504c0.008-0.013,0.018-0.025,0.032-0.038c0.006-0.008,0.016-0.013,0.025-0.023c0.394-0.38,0.923-0.617,1.511-0.617h0.004h31.383c1.207,0,2.18,0.979,2.18,2.184V97.994z"/></svg>