<?xml version="1.0" encoding="utf-8"?><!DOCTYPE svg PUBLIC "-//W3C//DTD SVG 1.1//EN" "http://www.w3.org/Graphics/SVG/1.1/DTD/svg11.dtd"><svg version="1.1" xmlns="http://www.w3.org/2000/svg" xmlns:xlink="http://www.w3.org/1999/xlink" x="0px" y="0px" width="256px" height="256px" viewBox="0 0 256 256" enable-background="new 0 0 256 256" xml:space="preserve"><path id="Path_2520" fill="#FFFFFF" d="M240.175,240h-46.458v-72.759c0-17.35-0.313-39.685-24.164-39.685c-24.199,0-27.899,18.905-27.899,38.422v74.018H95.191V90.375h44.601v20.45h0.623c9.094-15.554,26.003-24.84,44.011-24.17c47.086,0,55.769,30.971,55.769,71.267L240.175,240z M42.769,69.926c-14.892,0-26.963-12.072-26.963-26.959C15.801,28.075,27.867,16,42.759,16c14.892,0,26.962,12.066,26.967,26.958C69.731,57.845,57.661,69.92,42.769,69.926L42.769,69.926 M65.998,240H19.492V90.375h46.505V240z"/></svg>