<?xml version="1.0" encoding="utf-8"?><!DOCTYPE svg PUBLIC "-//W3C//DTD SVG 1.1//EN" "http://www.w3.org/Graphics/SVG/1.1/DTD/svg11.dtd"><svg version="1.1" xmlns="http://www.w3.org/2000/svg" xmlns:xlink="http://www.w3.org/1999/xlink" x="0px" y="0px" width="256px" height="256px" viewBox="0 0 256 256" enable-background="new 0 0 256 256" xml:space="preserve"><g transform="matrix(6.6666666,0,0,6.6666666,-5.6668106,-5957.7191)"><path fill="#FFFFFF" d="M5.531,902.199c-0.266,0-0.517,0.046-0.754,0.14l4.755,4.895l4.808,4.983l0.088,0.105l0.14,0.14l0.14,0.14l0.281,0.298l4.123,4.228c0.069,0.043,0.268,0.227,0.423,0.305c0.2,0.1,0.417,0.193,0.641,0.2c0.241,0.009,0.488-0.061,0.705-0.166c0.163-0.079,0.235-0.193,0.424-0.339l4.772-4.93l4.825-4.965l4.65-4.79c-0.299-0.162-0.629-0.246-0.983-0.246H5.531z M4.075,902.795c-0.507,0.48-0.825,1.203-0.825,2.018v16.072c0,0.66,0.212,1.259,0.561,1.719l0.667-0.632l4.965-4.825l4.404-4.264l-0.088-0.105l-4.825-4.965L4.11,902.83L4.075,902.795z M36.183,902.953l-4.702,4.86l-4.808,4.965l-0.088,0.088l4.579,4.439l4.965,4.825l0.299,0.281c0.267-0.429,0.421-0.957,0.421-1.526v-16.072C36.85,904.086,36.598,903.427,36.183,902.953z M14.409,913.463l-4.386,4.264l-4.983,4.825l-0.632,0.614c0.333,0.214,0.712,0.351,1.123,0.351h29.038c0.494,0,0.942-0.19,1.316-0.491l-0.316-0.316l-4.983-4.825l-4.579-4.422l-4.123,4.246c-0.223,0.148-0.372,0.312-0.59,0.413c-0.351,0.162-0.735,0.299-1.121,0.293c-0.387-0.006-0.767-0.157-1.115-0.328c-0.174-0.086-0.267-0.171-0.472-0.343L14.409,913.463z"/></g></svg>