<?xml version="1.0" encoding="utf-8"?><!DOCTYPE svg PUBLIC "-//W3C//DTD SVG 1.1//EN" "http://www.w3.org/Graphics/SVG/1.1/DTD/svg11.dtd"><svg version="1.1" xmlns="http://www.w3.org/2000/svg" xmlns:xlink="http://www.w3.org/1999/xlink" x="0px" y="0px" width="256px" height="256px" viewBox="0 0 256 256" enable-background="new 0 0 256 256" xml:space="preserve"><path id="path64_2_" fill="#FFFFFF" d="M127.999,16C66.144,16,16,66.144,16,128c0,47.45,29.521,88.01,71.184,104.331c-0.979-8.861-1.864-22.49,0.389-32.164c2.035-8.74,13.133-55.67,13.133-55.67s-3.351-6.709-3.351-16.629c0-15.574,9.026-27.2,20.267-27.2c9.555,0,14.169,7.174,14.169,15.776c0,9.609-6.117,23.977-9.275,37.292c-2.639,11.146,5.591,20.238,16.585,20.238c19.906,0,35.207-20.99,35.207-51.288c0-26.816-19.268-45.565-46.783-45.565c-31.867,0-50.572,23.902-50.572,48.604c0,9.627,3.708,19.948,8.335,25.559c0.916,1.109,1.05,2.08,0.776,3.213c-0.85,3.537-2.738,11.145-3.109,12.703c-0.488,2.049-1.623,2.484-3.746,1.496c-13.988-6.51-22.734-26.963-22.734-43.389c0-35.33,25.67-67.775,74.003-67.775c38.852,0,69.045,27.686,69.045,64.686c0,38.6-24.338,69.663-58.117,69.663c-11.35,0-22.019-5.895-25.67-12.859c0,0-5.616,21.383-6.978,26.625c-2.529,9.727-9.354,21.92-13.92,29.359c10.479,3.246,21.615,4.996,33.16,4.996C189.855,240,240,189.855,240,128C240,66.144,189.855,16,127.999,16"/></svg>