<?xml version="1.0" encoding="utf-8"?><!DOCTYPE svg PUBLIC "-//W3C//DTD SVG 1.1//EN" "http://www.w3.org/Graphics/SVG/1.1/DTD/svg11.dtd"><svg version="1.1" xmlns="http://www.w3.org/2000/svg" xmlns:xlink="http://www.w3.org/1999/xlink" x="0px" y="0px" width="256px" height="256px" viewBox="0 0 256 256" enable-background="new 0 0 256 256" xml:space="preserve"><g><path fill="#FFFFFF" d="M76.483,236.62c-1.234-11.185-2.352-28.383,0.491-40.592c2.569-11.032,16.576-70.265,16.576-70.265s-4.229-8.468-4.229-20.987c0-19.657,11.394-34.331,25.579-34.331c12.061,0,17.886,9.055,17.886,19.912c0,12.128-7.722,30.262-11.707,47.066c-3.331,14.07,7.057,25.544,20.933,25.544c25.125,0,44.438-26.491,44.438-64.731c0-33.847-24.32-57.511-59.048-57.511c-40.222,0-63.83,30.168-63.83,61.346c0,12.151,4.68,25.177,10.52,32.261c1.156,1.398,1.325,2.625,0.98,4.054c-1.072,4.464-3.457,14.066-3.926,16.033c-0.616,2.586-2.048,3.136-4.728,1.889c-17.655-8.217-28.693-34.031-28.693-54.764C37.726,56.952,70.125,16,131.129,16c49.037,0,87.146,34.944,87.146,81.645c0,48.718-30.718,87.925-73.353,87.925c-14.326,0-27.792-7.44-32.4-16.231c0,0-7.089,26.989-8.807,33.604C100.522,215.22,91.907,230.61,86.145,240L76.483,236.62z"/></g></svg>