<?xml version="1.0" encoding="utf-8"?><!DOCTYPE svg PUBLIC "-//W3C//DTD SVG 1.1//EN" "http://www.w3.org/Graphics/SVG/1.1/DTD/svg11.dtd"><svg version="1.1" xmlns="http://www.w3.org/2000/svg" xmlns:xlink="http://www.w3.org/1999/xlink" x="0px" y="0px" width="256px" height="256px" viewBox="0 0 256 256" enable-background="new 0 0 256 256" xml:space="preserve"><path fill="#FFFFFF" d="M240,129.604c0-13.647-11.034-24.486-24.488-24.486c-6.621,0-12.641,2.61-17.06,6.826C181.595,99.9,158.51,92.071,132.816,91.071L144.06,38.48l36.53,7.826c0.401,9.234,8.027,16.661,17.466,16.661c9.63,0,17.456-7.826,17.456-17.465s-7.826-17.464-17.456-17.464c-6.827,0-12.852,4.015-15.661,9.834l-40.743-8.629c-1.205-0.199-2.408,0-3.215,0.604c-1.001,0.601-1.604,1.604-1.801,2.81l-12.448,58.609c-26.092,0.804-49.578,8.633-66.641,20.876c-4.414-4.215-10.435-6.826-17.06-6.826C26.841,105.317,16,116.358,16,129.811c0,10.032,6.019,18.464,14.45,22.276c-0.401,2.408-0.599,4.816-0.599,7.43c0,37.73,43.954,68.444,98.153,68.444c54.192,0,98.15-30.512,98.15-68.444c0-2.411-0.201-5.021-0.603-7.43C233.98,148.274,240,139.64,240,129.604z M71.8,147.067c0-9.635,7.826-17.463,17.466-17.463c9.634,0,17.461,7.828,17.461,17.463c0,9.637-7.827,17.466-17.461,17.466C79.626,164.731,71.8,156.704,71.8,147.067z M169.553,193.437c-12.048,12.044-34.927,12.848-41.548,12.848c-6.825,0-29.713-1.01-41.554-12.848c-1.804-1.808-1.804-4.62,0-6.427c1.81-1.801,4.615-1.801,6.424,0c7.628,7.63,23.687,10.237,35.13,10.237c11.436,0,27.695-2.607,35.119-10.237c1.808-1.801,4.618-1.801,6.429,0C171.157,188.816,171.157,191.629,169.553,193.437z M166.336,164.731c-9.635,0-17.46-7.828-17.46-17.465c0-9.63,7.825-17.456,17.46-17.456c9.639,0,17.466,7.826,17.466,17.456C183.802,156.704,175.975,164.731,166.336,164.731z"/></svg>