<?xml version="1.0" encoding="utf-8"?><!DOCTYPE svg PUBLIC "-//W3C//DTD SVG 1.1//EN" "http://www.w3.org/Graphics/SVG/1.1/DTD/svg11.dtd"><svg version="1.1" xmlns="http://www.w3.org/2000/svg" xmlns:xlink="http://www.w3.org/1999/xlink" x="0px" y="0px" width="256px" height="256px" viewBox="0 0 256 256" enable-background="new 0 0 256 256" xml:space="preserve"><g><path fill="#FFFFFF" d="M113.967,139.627c0-6.416-5.211-11.627-11.626-11.627c-6.418,0-11.63,5.211-11.63,11.627s5.211,11.762,11.63,11.629C108.756,151.256,113.967,146.043,113.967,139.627z"/><path fill="#FFFFFF" d="M153.659,128.136c-6.415,0-11.626,5.211-11.626,11.624c0,6.416,5.211,11.629,11.626,11.629c6.418,0,11.63-5.346,11.63-11.629C165.289,133.348,160.077,128.136,153.659,128.136z"/><path fill="#FFFFFF" d="M151.521,166.223c-4.943,5.08-15.77,6.816-23.384,6.816c-7.62,0-18.313-1.736-23.392-6.816c-1.204-1.199-3.072-1.199-4.277,0c-1.201,1.203-1.201,3.076,0,4.279c7.885,7.883,23.125,8.555,27.669,8.555c4.409,0,19.643-0.535,27.665-8.555c1.068-1.203,1.068-3.076,0-4.279C154.596,165.023,152.725,165.023,151.521,166.223z"/><path fill="#FFFFFF" d="M128,16C66.144,16,16,66.144,16,128c0,61.856,50.144,112,112,112c61.855,0,112-50.145,112-112C240,66.144,189.855,16,128,16z M193.089,142.969c0.268,1.604,0.401,3.342,0.401,4.947c0,25.258-29.27,45.574-65.354,45.574c-36.089,0-65.357-20.451-65.357-45.574c0-1.74,0.132-3.344,0.399-4.947c-5.615-2.539-9.622-8.152-9.622-14.833c0-8.958,7.218-16.309,16.305-16.309c4.411,0,8.42,1.738,11.359,4.545c11.362-8.152,27-13.365,44.373-13.9l8.289-39.026c0.131-0.803,0.533-1.47,1.199-1.871c0.537-0.401,1.338-0.534,2.141-0.401l27.129,5.746c1.871-3.875,5.883-6.549,10.428-6.549c6.413,0,11.624,5.211,11.624,11.629s-5.211,11.629-11.624,11.629c-6.284,0-11.361-4.945-11.629-11.094l-24.324-5.211l-7.486,35.017c17.108,0.667,32.479,5.88,43.704,13.899c2.942-2.808,6.951-4.545,11.359-4.545c8.958,0,16.306,7.216,16.306,16.305C202.709,134.682,198.701,140.43,193.089,142.969z"/></g></svg>