<?xml version="1.0" encoding="utf-8"?><!DOCTYPE svg PUBLIC "-//W3C//DTD SVG 1.1//EN" "http://www.w3.org/Graphics/SVG/1.1/DTD/svg11.dtd"><svg version="1.1" xmlns="http://www.w3.org/2000/svg" xmlns:xlink="http://www.w3.org/1999/xlink" x="0px" y="0px" width="256px" height="256px" viewBox="0 0 256 256" enable-background="new 0 0 256 256" xml:space="preserve"><path fill="#FFFFFF" d="M29.732,116.053l133.43-54.973C176.332,55.354,221,37.027,221,37.027s20.615-8.016,18.898,11.455c-0.574,8.017-5.156,36.077-9.736,66.427l-14.315,89.907c0,0-1.146,13.172-10.88,15.462c-9.736,2.291-25.771-8.017-28.635-10.309c-2.291-1.717-42.948-27.486-57.838-40.086c-4.01-3.435-8.59-10.307,0.572-18.324c20.616-18.896,45.24-42.377,60.129-57.265c6.871-6.872,13.744-22.907-14.889-3.438l-80.745,54.404c0,0-9.162,5.727-26.342,0.571c-17.179-5.153-37.222-12.025-37.222-12.025S6.255,125.215,29.732,116.053L29.732,116.053z"/></svg>