<?xml version="1.0" encoding="utf-8"?><!DOCTYPE svg PUBLIC "-//W3C//DTD SVG 1.1//EN" "http://www.w3.org/Graphics/SVG/1.1/DTD/svg11.dtd"><svg version="1.1" xmlns="http://www.w3.org/2000/svg" xmlns:xlink="http://www.w3.org/1999/xlink" x="0px" y="0px" width="256px" height="256px" viewBox="0 0 256 256" enable-background="new 0 0 256 256" xml:space="preserve"><path fill="#FFFFFF" d="M240,58.574c-8.255,3.642-17.111,6.117-26.402,7.219c9.493-5.681,16.777-14.704,20.188-25.432c-8.89,5.28-18.716,9.09-29.174,11.161c-8.39-8.922-20.32-14.502-33.553-14.502c-25.363,0-45.95,20.586-45.95,45.95c0,3.61,0.401,7.118,1.202,10.459c-38.195-1.904-72.048-20.217-94.704-48.02c-3.945,6.784-6.217,14.67-6.217,23.092c0,15.94,8.119,30.008,20.451,38.23c-7.518-0.235-14.603-2.307-20.818-5.747c0,0.199,0,0.367,0,0.567c0,22.256,15.84,40.838,36.859,45.046c-3.843,1.036-7.92,1.604-12.098,1.604c-2.974,0-5.847-0.298-8.654-0.835c5.847,18.248,22.824,31.547,42.908,31.914c-15.741,12.332-35.523,19.686-57.079,19.686c-3.708,0-7.351-0.234-10.959-0.638c20.317,13.034,44.479,20.653,70.444,20.653c84.515,0,130.731-70.01,130.731-130.73c0-2.005-0.034-3.978-0.135-5.949c8.989-6.484,16.775-14.57,22.926-23.793L240,58.574z"/></svg>