<?xml version="1.0" encoding="utf-8"?><!DOCTYPE svg PUBLIC "-//W3C//DTD SVG 1.1//EN" "http://www.w3.org/Graphics/SVG/1.1/DTD/svg11.dtd"><svg version="1.1" xmlns="http://www.w3.org/2000/svg" xmlns:xlink="http://www.w3.org/1999/xlink" x="0px" y="0px" width="256px" height="256px" viewBox="0 0 256 256" enable-background="new 0 0 256 256" xml:space="preserve"><path fill="#FFFFFF" d="M207.004,48.558C186.045,27.578,158.17,16.016,128.463,16C67.268,16,17.46,65.788,17.435,126.991h0.003c-0.008,19.557,5.103,38.658,14.821,55.49L16.504,240l58.861-15.432c16.216,8.834,34.473,13.498,53.056,13.504h0.048c61.193,0,111.002-49.794,111.027-110.992C239.507,97.422,227.968,69.539,207.004,48.558z M184.75,168.045c-2.396,6.713-14.13,13.179-19.398,13.657c-5.268,0.482-10.208,2.385-34.484-7.187c-29.208-11.52-47.651-41.463-49.088-43.38c-1.434-1.918-11.735-15.581-11.735-29.722c0-14.136,7.424-21.086,10.059-23.964c2.635-2.879,5.748-3.594,7.665-3.594c1.916,0,3.831-0.005,5.505,0.063c2.05,0.084,4.316,0.18,6.467,4.97l0,0c2.556,5.685,8.14,19.889,8.858,21.328c0.719,1.44,1.198,3.121,0.24,5.032c-0.958,1.923-1.437,3.12-2.872,4.796c-1.436,1.676-3.021,3.745-4.313,5.033c-1.438,1.434-2.936,2.989-1.26,5.862c1.676,2.878,7.444,12.286,15.987,19.901c10.979,9.789,20.233,12.819,23.107,14.26c2.875,1.438,4.552,1.195,6.229-0.721c1.677-1.918,7.179-8.389,9.094-11.264c1.918-2.873,3.834-2.398,6.469-1.439c2.634,0.963,16.764,7.911,19.638,9.346c2.873,1.439,4.789,2.158,5.508,3.357C187.146,155.584,187.146,161.33,184.75,168.045z"/></svg>