<?xml version="1.0" encoding="utf-8"?><!DOCTYPE svg PUBLIC "-//W3C//DTD SVG 1.1//EN" "http://www.w3.org/Graphics/SVG/1.1/DTD/svg11.dtd"><svg version="1.1" xmlns="http://www.w3.org/2000/svg" xmlns:xlink="http://www.w3.org/1999/xlink" x="0px" y="0px" width="256px" height="256px" viewBox="0 0 256 256" enable-background="new 0 0 256 256" xml:space="preserve"><path fill="#FFFFFF" d="M84.891,93.531c2.751-3.215,3.669-5.51,5.508-9.198c1.837-3.667,0.917-6.889-0.461-9.651c-1.378-2.76-12.087-30-16.988-40.902c-4.124-9.186-8.471-9.37-12.402-9.531c-3.212-0.129-6.885-0.12-10.557-0.12c-3.678,0-9.647,1.371-14.7,6.892C30.24,36.54,16,49.87,16,76.979c0,27.119,19.757,53.321,22.506,57c2.755,3.676,38.124,61.101,94.14,83.193c46.558,18.355,56.032,14.707,66.134,13.781c10.104-0.918,32.605-13.317,37.201-26.191c4.594-12.877,4.594-23.896,3.215-26.205c-1.379-2.299-5.053-3.678-10.563-6.438c-5.512-2.752-32.611-16.077-37.662-17.924c-5.053-1.839-8.727-2.749-12.404,2.761c-3.674,5.514-14.225,17.923-17.44,21.601c-3.218,3.676-6.433,4.142-11.946,1.383c-5.512-2.763-23.26-8.574-44.316-27.348c-16.384-14.604-27.446-32.646-30.66-38.166c-3.216-5.511-0.343-8.493,2.416-11.243C79.098,100.713,82.138,96.745,84.891,93.531z"/></svg>