<?xml version="1.0" encoding="utf-8"?><!DOCTYPE svg PUBLIC "-//W3C//DTD SVG 1.1//EN" "http://www.w3.org/Graphics/SVG/1.1/DTD/svg11.dtd"><svg version="1.1" xmlns="http://www.w3.org/2000/svg" xmlns:xlink="http://www.w3.org/1999/xlink" x="0px" y="0px" width="256px" height="256px" viewBox="0 0 256 256" enable-background="new 0 0 256 256" xml:space="preserve"><path fill="#FFFFFF" d="M235.113,74.084c-2.588-9.633-10.208-17.252-19.842-19.841c-17.396-4.744-87.415-4.744-87.415-4.744s-70.018,0.143-87.414,4.888c-9.633,2.588-17.254,10.208-19.839,19.842C16,91.625,16,127.999,16,127.999s0,36.375,4.744,53.915c2.591,9.633,10.211,17.253,19.844,19.844c17.395,4.744,87.412,4.744,87.412,4.744s70.019,0,87.417-4.744c9.634-2.591,17.254-10.211,19.839-19.844C240,164.52,240,127.999,240,127.999S239.859,91.625,235.113,74.084z M105.571,161.643V94.355l58.085,33.644L105.571,161.643z"/></svg>